<!--?xml version="1.0" encoding="UTF-8" standalone="no"?--><svg width="100%" height="100%" viewBox="0 0 323 363" version="1.1" xmlns="http://www.w3.org/2000/svg" xmlns:xlink="http://www.w3.org/1999/xlink" xml:space="preserve" style="fill-rule: evenodd; clip-rule: evenodd; stroke-miterlimit: 1.5;"><g><path style="fill:none;stroke:#fff;stroke-opacity:0.279388;stroke-width:1.5px;" d="M23.732,184.782A136.925,136.925 0,1,1 297.582,184.782A136.925,136.925 0,1,1 23.732,184.782" class="jKibUZPI_0"></path><path style="fill:none;stroke:#fff;stroke-opacity:0.279388;stroke-width:1.5px;" d="M1.3519999999999897,184.782A79.653,79.653 0,1,1 160.65800000000002,184.782A79.653,79.653 0,1,1 1.3519999999999897,184.782" class="jKibUZPI_1"></path><path style="fill:none;stroke:#fff;stroke-opacity:0.279388;stroke-width:1.5px;" d="M161.567,189.01A79.653,79.653 0,1,1 320.873,189.01A79.653,79.653 0,1,1 161.567,189.01" class="jKibUZPI_2"></path><path style="fill:none;stroke:#fff;stroke-opacity:0.279388;stroke-width:1.5px;" d="M79.365,105.504A79.653,79.653 0,1,1 238.671,105.504A79.653,79.653 0,1,1 79.365,105.504" class="jKibUZPI_3"></path><path style="fill:none;stroke:#fff;stroke-opacity:0.279388;stroke-width:1.5px;" d="M78.65399999999998,263.746A79.653,79.653 0,1,1 237.95999999999998,263.746A79.653,79.653 0,1,1 78.65399999999998,263.746" class="jKibUZPI_4"></path><path d="M103.092,360.931l99.035,-205.01l67.067,-138.832" style="fill:none;stroke:#fff;stroke-opacity:0.457549;stroke-width:1.5px;" class="jKibUZPI_5"></path><path d="M55.315,345.582l165.297,-344.23" style="fill:none;stroke:#fff;stroke-opacity:0.457549;stroke-width:1.5px;" class="jKibUZPI_6"></path><path d="M218.181,360.931l-166.103,-343.842" style="fill:none;stroke:#fff;stroke-opacity:0.457549;stroke-width:1.5px;" class="jKibUZPI_7"></path><path d="M265.958,345.582l-165.297,-344.23" style="fill:none;stroke:#fff;stroke-opacity:0.457549;stroke-width:1.5px;" class="jKibUZPI_8"></path></g><style>.jKibUZPI_0{stroke-dasharray:861 863;stroke-dashoffset:862;animation:jKibUZPI_draw 2000ms linear 0ms forwards;}.jKibUZPI_1{stroke-dasharray:501 503;stroke-dashoffset:502;animation:jKibUZPI_draw 2000ms linear 125ms forwards;}.jKibUZPI_2{stroke-dasharray:501 503;stroke-dashoffset:502;animation:jKibUZPI_draw 2000ms linear 250ms forwards;}.jKibUZPI_3{stroke-dasharray:501 503;stroke-dashoffset:502;animation:jKibUZPI_draw 2000ms linear 375ms forwards;}.jKibUZPI_4{stroke-dasharray:501 503;stroke-dashoffset:502;animation:jKibUZPI_draw 2000ms linear 500ms forwards;}.jKibUZPI_5{stroke-dasharray:382 384;stroke-dashoffset:383;animation:jKibUZPI_draw 2000ms linear 625ms forwards;}.jKibUZPI_6{stroke-dasharray:382 384;stroke-dashoffset:383;animation:jKibUZPI_draw 2000ms linear 750ms forwards;}.jKibUZPI_7{stroke-dasharray:382 384;stroke-dashoffset:383;animation:jKibUZPI_draw 2000ms linear 875ms forwards;}.jKibUZPI_8{stroke-dasharray:382 384;stroke-dashoffset:383;animation:jKibUZPI_draw 2000ms linear 1000ms forwards;}@keyframes jKibUZPI_draw{100%{stroke-dashoffset:0;}}@keyframes jKibUZPI_fade{0%{stroke-opacity:1;}94.44444444444444%{stroke-opacity:1;}100%{stroke-opacity:0;}}</style></svg>