<?xml version="1.0" encoding="UTF-8" standalone="no"?><!DOCTYPE svg PUBLIC "-//W3C//DTD SVG 1.1//EN" "http://www.w3.org/Graphics/SVG/1.1/DTD/svg11.dtd"><svg width="100%" height="100%" viewBox="0 0 248 161" version="1.1" xmlns="http://www.w3.org/2000/svg" xmlns:xlink="http://www.w3.org/1999/xlink" xml:space="preserve" style="fill-rule:evenodd;clip-rule:evenodd;stroke-linejoin:round;stroke-miterlimit:1.41421;"><g><g><g><g><path d="M123.872,98.348c5.328,0 10.969,-3.749 18.021,-11.536l-0.157,-0.289c-5.014,4.615 -8.775,5.913 -12.693,5.913c-7.835,0 -11.282,-4.615 -18.49,-20.189c-0.272,-0.587 -0.941,-2.019 -1.254,-2.596c-5.328,-11.392 -10.186,-18.314 -16.767,-26.966c15.983,-6.345 28.52,-15.43 28.52,-27.111c0,-9.95 -8.932,-15.574 -19.745,-15.574c-15.043,0 -27.266,9.518 -27.266,23.65c0,6.777 3.918,14.276 9.245,20.91l0.471,0.432c-18.805,5.48 -38.079,14.565 -38.079,32.591c0,12.69 10.656,20.765 24.759,20.765c14.417,0 25.542,-8.508 34.004,-19.467c0.157,0.288 0.314,0.576 0.47,0.865c6.112,12.978 10.969,18.602 18.961,18.602Zm-32.437,-57.249c-5.955,-8.076 -10.656,-14.277 -10.656,-22.352c0,-11.104 8.932,-17.738 19.431,-17.738c8.619,0 13.007,6.201 13.007,14.133c0,11.392 -7.209,21.486 -20.999,26.966l-0.783,-1.009Zm-17.081,53.788c-12.066,0 -19.744,-8.508 -19.744,-19.323c0,-14.709 14.103,-24.083 29.617,-29.851c9.402,11.681 13.476,19.035 19.901,32.447c-7.522,9.806 -17.081,16.727 -29.774,16.727Z" style="fill:#f2f2f2;fill-rule:nonzero;"/></g><g><path d="M127.234,98.364c-5.328,0 -10.969,-3.75 -18.021,-11.537l0.157,-0.288c5.014,4.615 8.775,5.912 12.693,5.912c7.835,0 11.282,-4.614 18.491,-20.188c-8.259,-10.917 -11.341,-16.359 -15.647,-15.215c1.097,1.298 1.41,2.884 1.41,4.326c0,2.884 -2.194,4.903 -5.328,4.903c-3.76,0 -6.268,-2.595 -6.268,-6.056c0,-3.317 2.848,-6.372 6.76,-6.58c6.552,-0.349 9.2,3.624 19.543,17.756c0.313,-0.576 0.47,-1.153 0.783,-1.73c5.328,-11.392 10.186,-18.314 16.767,-26.967c-15.983,-6.345 -28.519,-15.43 -28.519,-27.11c0,-9.95 8.932,-15.575 19.744,-15.575c15.043,0 27.266,9.518 27.266,23.65c0,6.778 -3.917,14.277 -9.245,20.91l-0.47,0.433c18.804,5.48 38.078,14.564 38.078,32.59c0,12.69 -10.656,20.766 -24.759,20.766c-14.416,0 -25.542,-8.508 -34.004,-19.468c-0.157,0.288 -0.313,0.577 -0.47,0.865c-6.111,12.979 -10.969,18.603 -18.961,18.603Zm32.437,-57.25c5.955,-8.075 10.656,-14.276 10.656,-22.352c0,-11.104 -8.932,-17.737 -19.431,-17.737c-8.619,0 -13.006,6.201 -13.006,14.132c0,11.392 7.208,21.487 20.998,26.967l0.783,-1.01Zm17.081,53.789c12.066,0 19.744,-8.508 19.744,-19.324c0,-14.709 -14.103,-24.082 -29.616,-29.85c-9.403,11.68 -13.477,19.035 -19.902,32.446c7.522,9.806 17.081,16.728 29.774,16.728Z" style="fill:#f2f2f2;fill-rule:nonzero;"/></g></g></g><g><g><path d="M20.24,159.509c-6.331,-0.531 -7.578,-1.061 -7.578,-3.537l0,-26.521c3.837,-4.686 8.345,-7.957 13.813,-7.957c6.043,0 8.057,4.155 8.057,10.963l0,23.515c0,2.476 -1.247,3.095 -7.29,3.537l0,0.176l19.76,0l0,-0.176c-6.331,-0.531 -7.482,-1.15 -7.482,-3.537c0,0 0.192,-25.018 0,-25.018c0,-0.531 0,-1.15 -0.096,-1.68c3.741,-4.509 8.25,-7.78 13.717,-7.78c6.139,0 8.25,4.155 8.25,10.963l0,23.515c0,2.476 -1.247,3.095 -7.482,3.537l0,0.176l19.472,0l0,-0.176c-5.851,-0.531 -7.002,-1.15 -7.002,-3.537l0,-25.018c0,-7.073 -3.933,-11.847 -11.032,-11.847c-7.194,0 -12.086,4.951 -16.019,9.46c-0.767,-5.747 -4.508,-9.46 -10.647,-9.46c-7.194,0 -12.086,4.951 -16.019,9.46l0,-9.371l-12.662,0.619l0,0.176c7.578,0.708 7.674,1.061 7.674,3.802l0,32.179c0,2.476 -1.247,3.095 -7.674,3.537l0,0.176l20.24,0l0,-0.176Z" style="fill:#f2f2f2;fill-rule:nonzero;"/><path d="M91.318,157.74c-4.892,0 -8.441,-2.652 -8.441,-7.514c0,-4.42 1.535,-7.072 5.468,-8.929c4.316,-2.033 10.551,-2.829 15.827,-3.271l0,14.057c-3.357,3.536 -7.77,5.657 -12.854,5.657Zm19.665,2.476c2.206,0 4.412,-0.884 5.947,-2.299l-0.192,-0.177c-4.988,3.36 -7.578,1.238 -7.578,-5.392l0,-22.632c0,-6.719 -5.851,-10.609 -13.621,-10.609c-8.249,0 -15.443,3.89 -15.443,8.399c0,2.033 1.63,3.624 3.549,3.624c2.206,0 3.932,-1.502 3.932,-3.447c0,-2.122 -1.438,-3.448 -3.453,-3.448c2.302,-3.094 6.427,-4.686 10.935,-4.686c5.084,0 9.113,2.476 9.113,9.283l0,8.752c-6.331,0.619 -13.237,1.415 -18.897,4.067c-4.412,2.121 -7.482,4.95 -7.482,9.813c0,5.569 4.797,8.929 10.552,8.929c6.714,0 11.607,-3.537 15.827,-7.692c-0.288,6.1 2.59,7.515 6.811,7.515Z" style="fill:#f2f2f2;fill-rule:nonzero;"/><path d="M129.688,160.746l14.868,-18.565c5.947,-7.249 15.296,-23.855 15.296,-27.745c0,-2.829 -1.535,-4.597 -3.741,-4.597c-2.207,0 -3.837,1.415 -3.837,3.536c0,1.945 1.63,3.36 4.892,3.979c-1.055,3.094 1.691,3.265 -12.88,24.151l-10.474,13.141l-0.479,0l-0.48,-7.603l-3.261,-28.201l-10.936,1.238l0,0.265c5.084,0 6.14,0.177 6.619,3.978l2.878,22.72l1.247,13.703l0.288,0Z" style="fill:#f2f2f2;fill-rule:nonzero;"/><path d="M178.512,119.196c8.633,0 11.895,7.779 11.895,16.708l-25.995,0c1.151,-9.901 6.618,-16.708 14.1,-16.708Zm16.595,30.853l-0.288,-0.088c-2.686,5.127 -7.386,8.575 -14.58,8.575c-9.592,0 -16.115,-6.188 -16.115,-18.388c0,-1.238 0.096,-2.564 0.192,-3.713l31.271,0c0.575,-10.52 -6.523,-17.681 -17.075,-17.681c-10.839,0 -19.952,9.989 -19.952,21.924c0,11.847 7.578,20.068 19.473,20.068c8.153,0 14.004,-4.332 17.074,-10.697Z" style="fill:#f2f2f2;fill-rule:nonzero;"/><path d="M199.903,159.685l20.24,0l0,-0.176c-6.331,-0.531 -7.578,-1.061 -7.578,-3.537l0,-26.521c3.933,-4.686 8.633,-7.957 14.292,-7.957c6.427,0 8.729,4.155 8.729,10.963l0,23.515c0,2.476 -1.247,3.095 -7.482,3.537l0,0.176l19.473,0l0,-0.176c-5.852,-0.531 -7.003,-1.15 -7.003,-3.537l0,-25.018c0,-7.073 -4.028,-11.847 -11.414,-11.847c-7.482,0 -12.47,4.951 -16.595,9.46l0,-9.371l-12.662,0.619l0,0.176c7.578,0.708 7.674,1.061 7.674,3.802l0,32.179c0,2.653 -1.247,3.183 -7.674,3.537l0,0.176Z" style="fill:#f2f2f2;fill-rule:nonzero;"/></g></g></g></svg>