<svg
  viewBox="0 0 323 363"
  xmlns="http://www.w3.org/2000/svg"
  fill-rule="evenodd"
  clip-rule="evenodd"
  stroke-miterlimit="1.5">
    <circle
      cx="107.084"
      cy="219.58"
      r="71.661"
      fill="none"
      stroke="#fff"
      stroke-opacity=".279"
      stroke-width=".79"
      transform="matrix(1.91072 0 0 1.91072 -43.95 -234.77)"/>
    <circle
      cx="433.816"
      cy="345.102"
      r="101.508"
      fill="none"
      stroke="#fff"
      stroke-opacity=".279"
      stroke-width="1.91"
      transform="matrix(.78469 0 0 .78469 -259.404 -86.012)"/>
    <circle
      cx="433.816"
      cy="345.102"
      r="101.508"
      fill="none"
      stroke="#fff"
      stroke-opacity=".279"
      stroke-width="1.91"
      transform="matrix(.78469 0 0 .78469 -99.181 -81.786)"/>
    <circle
      cx="433.816"
      cy="345.102"
      r="101.508"
      fill="none"
      stroke="#fff"
      stroke-opacity=".279"
      stroke-width="1.91"
      transform="matrix(.78469 0 0 .78469 -181.392 -165.292)"/>
    <circle
      cx="433.816"
      cy="345.102"
      r="101.508"
      fill="none"
      stroke="#fff"
      stroke-opacity=".279"
      stroke-width="1.91"
      transform="matrix(.78469 0 0 .78469 -182.103 -7.047)"/>
    <path
      d="M434.59 546.763l154.796-245.41 104.827-166.189"
      fill="none"
      stroke="#fff"
      stroke-opacity=".458"
      stroke-width="1.91"
      transform="matrix(.77971 -.08826 .08826 .7797 -284.019 -27.024)"/>
    <path
      d="M434.59 546.763l259.623-411.599"
      fill="none"
      stroke="#fff"
      stroke-opacity=".458"
      stroke-width="1.91"
      transform="matrix(.7795 -.09008 .09008 .7795 -332.704 -41.466)"/>
    <path
      d="M434.59 546.763l259.623-411.599"
      fill="none"
      stroke="#fff"
      stroke-opacity=".458"
      stroke-width="1.91"
      transform="matrix(-.77971 -.08826 -.08826 .7797 605.29 -27.024)"/>
    <path
      d="M434.59 546.763l259.623-411.599" 
      fill="none"
      stroke="#fff"
      stroke-opacity=".458"
      stroke-width="1.91"
      transform="matrix(-.7795 -.09008 -.09008 .7795 653.975 -41.466)"/>
  </svg>
